<?xml version="1.0" encoding="UTF-8"?>
<svg width="24px" height="24px" viewBox="0 0 24 24" version="1.1" xmlns="http://www.w3.org/2000/svg" xmlns:xlink="http://www.w3.org/1999/xlink">
    <title>Quiz</title>
    <g id="Quiz" stroke="none" stroke-width="1" fill="none" fill-rule="evenodd">
        <path d="M12.26,22 C13.0733333,22 13.7466667,21.7066667 14.28,21.12 C14.7333333,20.6266667 15.0733333,19.96 15.3,19.12 C15.4866667,18.44 15.58,17.7333333 15.58,17 L15.58,15.08 C15.58,14.7066667 15.6666667,14.3333333 15.84,13.96 C15.9466667,13.7333333 16.16,13.3866667 16.48,12.92 L16.48,12.9 L16.48,12.9 C16.7866667,12.4333333 17.02,12.0533333 17.18,11.76 C17.4333333,11.28 17.6266667,10.7866667 17.76,10.28 C17.92,9.65333333 18,8.98 18,8.26 C18,7.12666667 17.7133333,6.07333333 17.14,5.1 C16.5933333,4.15333333 15.8466667,3.40666667 14.9,2.86 C13.9266667,2.28666667 12.8766667,2 11.75,2 C10.6233333,2 9.57333333,2.28666667 8.6,2.86 C7.65333333,3.40666667 6.90666667,4.15333333 6.36,5.1 C5.78666667,6.07333333 5.5,7.12666667 5.5,8.26 C5.5,9.03333333 5.6,9.76 5.8,10.44 C5.96,11 6.19333333,11.54 6.5,12.06 C6.67333333,12.3666667 6.94,12.76 7.3,13.24 C7.60666667,13.6533333 7.81333333,13.96 7.92,14.16 C8.08,14.4533333 8.16,14.7333333 8.16,15 L8.16,16.98 C8.16,17.5266667 8.21333333,18.0933333 8.32,18.68 C8.53333333,19.7866667 8.92,20.62 9.48,21.18 C10.0133333,21.7266667 10.66,22 11.42,22 L12.26,22 Z M10.64,16.16 L9,16.16 L9,15 C9,14.6133333 8.89333333,14.22 8.68,13.82 C8.56,13.58 8.32666667,13.2266667 7.98,12.76 C7.63333333,12.28 7.38,11.9 7.22,11.62 C6.94,11.1533333 6.73333333,10.68 6.6,10.2 C6.42666667,9.6 6.34,8.95333333 6.34,8.26 C6.34,7.27333333 6.58333333,6.36666667 7.07,5.54 C7.55666667,4.71333333 8.21333333,4.05666667 9.04,3.57 C9.86666667,3.08333333 10.77,2.84 11.75,2.84 C12.73,2.84 13.6333333,3.08333333 14.46,3.57 C15.2866667,4.05666667 15.9433333,4.71333333 16.43,5.54 C16.9166667,6.36666667 17.16,7.27333333 17.16,8.26 C17.16,8.91333333 17.0933333,9.51333333 16.96,10.06 C16.84,10.5133333 16.66,10.96 16.42,11.4 C16.2866667,11.6533333 16.0733333,12 15.78,12.44 C15.4333333,12.96 15.1933333,13.3666667 15.06,13.66 C14.8466667,14.1266667 14.74,14.6 14.74,15.08 L14.74,16.16 L13.18,16.16 L14.16,7.8 C14.1733333,7.70666667 14.1566667,7.62 14.11,7.54 C14.0633333,7.46 14,7.40333333 13.92,7.37 C13.84,7.33666667 13.7533333,7.33 13.66,7.35 C13.5666667,7.37 13.4933333,7.41333333 13.44,7.48 L11.84,9.28 L10.22,7.48 C10.1666667,7.41333333 10.0933333,7.37 10,7.35 C9.90666667,7.33 9.82,7.33666667 9.74,7.37 C9.66,7.40333333 9.59666667,7.46 9.55,7.54 C9.50333333,7.62 9.48666667,7.70666667 9.5,7.8 L10.64,16.16 Z M12.34,16.16 L11.46,16.16 L11.46,16.08 L10.52,9.06 L11.52,10.2 C11.6,10.2933333 11.7033333,10.34 11.83,10.34 C11.9566667,10.34 12.06,10.2933333 12.14,10.2 L13.18,9.02 L12.34,16.16 Z M10.18,19.18 C10.1,18.9533333 10.0333333,18.72 9.98,18.48 L12.24,17 L13.92,17 L10.18,19.18 Z M9.86,17.56 C9.84666667,17.3466667 9.84,17.1666667 9.84,17.02 L9.84,17 L9.84,17 L10.72,17 L9.86,17.56 Z M11.22,20.3 C10.9933333,20.26 10.8066667,20.1666667 10.66,20.02 C10.6466667,20.0066667 10.6266667,19.98 10.6,19.94 L10.58,19.9 L13.82,18.02 C13.7666667,18.3266667 13.7066667,18.6066667 13.64,18.86 L11.22,20.3 Z" id="" fill="#2138AF" fill-rule="nonzero"></path>
        <path d="M11.75,2 C12.8766667,2 13.9266667,2.28666667 14.9,2.86 C15.8466667,3.40666667 16.5933333,4.15333333 17.14,5.1 C17.7133333,6.07333333 18,7.12666667 18,8.26 C18,8.98 17.92,9.65333333 17.76,10.28 C17.6266667,10.7866667 17.4333333,11.28 17.18,11.76 C17.02,12.0533333 16.7866667,12.4333333 16.48,12.9 L16.48,12.9 L16.48,12.92 C16.16,13.3866667 15.9466667,13.7333333 15.84,13.96 C15.6666667,14.3333333 15.58,14.7066667 15.58,15.08 L15.58,15.08 L15.58,17 C15.58,16.98 8.16,16.98 8.16,16.98 L8.16,16.98 L8.16,15 C8.16,14.7333333 8.08,14.4533333 7.92,14.16 C7.81333333,13.96 7.60666667,13.6533333 7.3,13.24 C6.94,12.76 6.67333333,12.3666667 6.5,12.06 C6.19333333,11.54 5.96,11 5.8,10.44 C5.6,9.76 5.5,9.03333333 5.5,8.26 C5.5,7.12666667 5.78666667,6.07333333 6.36,5.1 C6.90666667,4.15333333 7.65333333,3.40666667 8.6,2.86 C9.57333333,2.28666667 10.6233333,2 11.75,2 Z M11.75,2.84 C10.77,2.84 9.86666667,3.08333333 9.04,3.57 C8.21333333,4.05666667 7.55666667,4.71333333 7.07,5.54 C6.58333333,6.36666667 6.34,7.27333333 6.34,8.26 C6.34,8.95333333 6.42666667,9.6 6.6,10.2 C6.73333333,10.68 6.94,11.1533333 7.22,11.62 C7.38,11.9 7.63333333,12.28 7.98,12.76 C8.32666667,13.2266667 8.56,13.58 8.68,13.82 C8.89333333,14.22 9,14.6133333 9,15 L9,15 L9,16.16 L14.74,16.16 L14.74,15.08 C14.74,14.6 14.8466667,14.1266667 15.06,13.66 C15.1933333,13.3666667 15.4333333,12.96 15.78,12.44 C16.0733333,12 16.2866667,11.6533333 16.42,11.4 C16.66,10.96 16.84,10.5133333 16.96,10.06 C17.0933333,9.51333333 17.16,8.91333333 17.16,8.26 C17.16,7.27333333 16.9166667,6.36666667 16.43,5.54 C15.9433333,4.71333333 15.2866667,4.05666667 14.46,3.57 C13.6333333,3.08333333 12.73,2.84 11.75,2.84 Z" id="Combined-Shape" fill="#75B843" fill-rule="nonzero"></path>
    </g>
</svg>