<?xml version="1.0" encoding="UTF-8"?>
<svg width="64px" height="64px" viewBox="0 0 64 64" version="1.1" xmlns="http://www.w3.org/2000/svg" xmlns:xlink="http://www.w3.org/1999/xlink">
    <title>Duration</title>
    <g id="Duration" stroke="none" stroke-width="1" fill="none" fill-rule="evenodd">
        <path d="M32.048,55.712 C36.336,55.712 40.32,54.624 44,52.448 C47.552,50.368 50.368,47.552 52.448,44 C54.624,40.32 55.712,36.336 55.712,32.048 C55.712,27.76 54.624,23.776 52.448,20.096 C50.368,16.544 47.552,13.728 44,11.648 C40.32,9.472 36.336,8.384 32.048,8.384 C27.76,8.384 23.776,9.472 20.096,11.648 C16.544,13.728 13.728,16.544 11.648,20.096 C9.472,23.776 8.384,27.76 8.384,32.048 C8.384,36.336 9.472,40.32 11.648,44 C13.728,47.552 16.544,50.368 20.096,52.448 C23.776,54.624 27.76,55.712 32.048,55.712 Z M32.048,51.68 C28.496,51.68 25.2,50.8 22.16,49.04 C19.184,47.28 16.832,44.928 15.104,41.984 C13.312,38.912 12.416,35.6 12.416,32.048 C12.416,28.496 13.312,25.2 15.104,22.16 C16.832,19.184 19.184,16.832 22.16,15.104 C25.2,13.312 28.496,12.416 32.048,12.416 C35.6,12.416 38.896,13.312 41.936,15.104 C44.912,16.832 47.264,19.184 48.992,22.16 C50.784,25.2 51.68,28.496 51.68,32.048 C51.68,35.6 50.784,38.912 48.992,41.984 C47.264,44.928 44.928,47.28 41.984,49.04 C38.912,50.8 35.6,51.68 32.048,51.68 Z" id="" fill="#2138AF" fill-rule="nonzero"></path>
        <path d="M32.048,35.264 C32.784,35.264 33.432,35.04 33.992,34.592 C34.552,34.144 34.928,33.584 35.12,32.912 L42.752,29.84 C43.264,29.648 43.624,29.296 43.832,28.784 C44.04,28.272 44.048,27.76 43.856,27.248 C43.664,26.736 43.312,26.376 42.8,26.168 C42.288,25.96 41.776,25.952 41.264,26.144 L33.536,29.216 C33.056,28.96 32.568,28.832 32.072,28.832 C31.576,28.832 31.088,28.96 30.608,29.216 L22.688,21.296 C22.496,21.104 22.264,21.008 21.992,21.008 C21.72,21.008 21.488,21.104 21.296,21.296 C21.104,21.488 21.008,21.72 21.008,21.992 C21.008,22.264 21.104,22.496 21.296,22.688 L29.216,30.608 C28.96,31.088 28.832,31.568 28.832,32.048 C28.832,32.944 29.144,33.704 29.768,34.328 C30.392,34.952 31.152,35.264 32.048,35.264 Z" id="Path" fill="#75B843" fill-rule="nonzero"></path>
    </g>
</svg>