<?xml version="1.0" encoding="UTF-8"?>
<svg width="24px" height="24px" viewBox="0 0 24 24" version="1.1" xmlns="http://www.w3.org/2000/svg" xmlns:xlink="http://www.w3.org/1999/xlink">
    <title>Projects Protected</title>
    <g id="Projects-Protected" stroke="none" stroke-width="1" fill="none" fill-rule="evenodd">
        <path d="M11.538,23 C11.6846667,23 11.824,22.9706667 11.956,22.912 C12.4106667,22.6773333 12.946,22.3326667 13.562,21.878 C14.706,21.0126667 15.7546667,20.0006667 16.708,18.842 C18.0133333,17.258 19.04,15.4833333 19.788,13.518 C20.712,11.0833333 21.174,8.42866667 21.174,5.554 C21.174,5.334 21.1043333,5.13966667 20.965,4.971 C20.8256667,4.80233333 20.6533333,4.696 20.448,4.652 C18.3066667,4.18266667 16.2753333,3.53 14.354,2.694 C13.386,2.26866667 12.6086667,1.88 12.022,1.528 C11.8753333,1.44 11.714,1.396 11.538,1.396 C11.362,1.396 11.2006667,1.44 11.054,1.528 C10.4673333,1.88 9.69,2.26866667 8.722,2.694 C6.80066667,3.53 4.76933333,4.18266667 2.628,4.652 C2.42266667,4.696 2.254,4.80233333 2.122,4.971 C1.99,5.13966667 1.924,5.334 1.924,5.554 C1.924,8.53133333 2.386,11.2446667 3.31,13.694 C4.058,15.6886667 5.08466667,17.4633333 6.39,19.018 C7.34333333,20.162 8.39933333,21.1373333 9.558,21.944 C10.174,22.384 10.7093333,22.7066667 11.164,22.912 C11.2813333,22.9706667 11.406,23 11.538,23 Z M11.538,21.042 C10.6286667,20.514 9.74133333,19.8173333 8.876,18.952 C7.49733333,17.6026667 6.39,16.026 5.554,14.222 C4.43933333,11.8606667 3.838,9.21333333 3.75,6.28 C5.49533333,5.85466667 7.16,5.31933333 8.744,4.674 C9.78533333,4.24866667 10.7166667,3.80866667 11.538,3.354 C12.3593333,3.80866667 13.2906667,4.24866667 14.332,4.674 C15.9306667,5.31933333 17.5953333,5.85466667 19.326,6.28 C19.238,9.14 18.644,11.7506667 17.544,14.112 C16.6933333,15.9013333 15.5786667,17.4926667 14.2,18.886 C13.3346667,19.7513333 12.4473333,20.47 11.538,21.042 Z M11.494,19.282 C11.5966667,19.282 11.692,19.2526667 11.78,19.194 C13.1586667,18.1233333 14.3393333,16.818 15.322,15.278 C16.7153333,13.0633333 17.5586667,10.5406667 17.852,7.71 C17.8666667,7.60733333 17.841,7.50833333 17.775,7.413 C17.709,7.31766667 17.6246667,7.25533333 17.522,7.226 C15.4393333,6.62466667 13.5106667,5.89133333 11.736,5.026 C11.604,4.95266667 11.472,4.95266667 11.34,5.026 C9.56533333,5.89133333 7.63666667,6.62466667 5.554,7.226 C5.45133333,7.25533333 5.367,7.31766667 5.301,7.413 C5.235,7.50833333 5.20933333,7.60733333 5.224,7.71 C5.50266667,10.6286667 6.33133333,13.188 7.71,15.388 C8.678,16.9133333 9.85133333,18.182 11.23,19.194 C11.3033333,19.2526667 11.3913333,19.282 11.494,19.282 Z M11.494,18.248 C10.2766667,17.2946667 9.24266667,16.1213333 8.392,14.728 C7.204,12.7773333 6.46333333,10.5333333 6.17,7.996 C8.09133333,7.43866667 9.88066667,6.75666667 11.538,5.95 C13.1806667,6.742 14.97,7.424 16.906,7.996 C16.598,10.4746667 15.8426667,12.6893333 14.64,14.64 C13.7746667,16.048 12.726,17.2506667 11.494,18.248 Z" id="" fill="#2138AF" fill-rule="nonzero"></path>
        <path d="M11.34,5.026 C11.472,4.95266667 11.604,4.95266667 11.736,5.026 C13.5106667,5.89133333 15.4393333,6.62466667 17.522,7.226 C17.6246667,7.25533333 17.709,7.31766667 17.775,7.413 C17.841,7.50833333 17.8666667,7.60733333 17.852,7.71 C17.5586667,10.5406667 16.7153333,13.0633333 15.322,15.278 C14.3393333,16.818 13.1586667,18.1233333 11.78,19.194 C11.692,19.2526667 11.5966667,19.282 11.494,19.282 C11.3913333,19.282 11.3033333,19.2526667 11.23,19.194 C9.85133333,18.182 8.678,16.9133333 7.71,15.388 C6.33133333,13.188 5.50266667,10.6286667 5.224,7.71 C5.20933333,7.60733333 5.235,7.50833333 5.301,7.413 C5.367,7.31766667 5.45133333,7.25533333 5.554,7.226 C7.63666667,6.62466667 9.56533333,5.89133333 11.34,5.026 Z M11.538,5.95 C9.88066667,6.75666667 8.09133333,7.43866667 6.17,7.996 C6.46333333,10.5333333 7.204,12.7773333 8.392,14.728 C9.24266667,16.1213333 10.2766667,17.2946667 11.494,18.248 C12.726,17.2506667 13.7746667,16.048 14.64,14.64 C15.8426667,12.6893333 16.598,10.4746667 16.906,7.996 C14.97,7.424 13.1806667,6.742 11.538,5.95 Z" id="Combined-Shape" fill="#75B843" fill-rule="nonzero"></path>
    </g>
</svg>