<?xml version="1.0" encoding="UTF-8"?>
<svg width="24px" height="24px" viewBox="0 0 24 24" version="1.1" xmlns="http://www.w3.org/2000/svg" xmlns:xlink="http://www.w3.org/1999/xlink">
    <title>Checklist</title>
    <g id="Checklist" stroke="none" stroke-width="1" fill="none" fill-rule="evenodd">
        <path d="M21.16,5.34 C21.4,5.34 21.6,5.25666667 21.76,5.09 C21.92,4.92333333 22,4.72666667 22,4.5 C22,4.27333333 21.92,4.07666667 21.76,3.91 C21.6,3.74333333 21.4,3.66 21.16,3.66 L10.34,3.66 C10.1,3.66 9.9,3.74333333 9.74,3.91 C9.58,4.07666667 9.5,4.27333333 9.5,4.5 C9.5,4.72666667 9.58,4.92333333 9.74,5.09 C9.9,5.25666667 10.1,5.34 10.34,5.34 L21.16,5.34 Z M21.16,10.34 C21.4,10.34 21.6,10.2566667 21.76,10.09 C21.92,9.92333333 22,9.72666667 22,9.5 C22,9.27333333 21.92,9.07666667 21.76,8.91 C21.6,8.74333333 21.4,8.66 21.16,8.66 L10.34,8.66 C10.1,8.66 9.9,8.74333333 9.74,8.91 C9.58,9.07666667 9.5,9.27333333 9.5,9.5 C9.5,9.72666667 9.58,9.92333333 9.74,10.09 C9.9,10.2566667 10.1,10.34 10.34,10.34 L21.16,10.34 Z M21.16,15.34 C21.4,15.34 21.6,15.2566667 21.76,15.09 C21.92,14.9233333 22,14.7266667 22,14.5 C22,14.2733333 21.92,14.0766667 21.76,13.91 C21.6,13.7433333 21.4,13.66 21.16,13.66 L10.34,13.66 C10.1,13.66 9.9,13.7433333 9.74,13.91 C9.58,14.0766667 9.5,14.2733333 9.5,14.5 C9.5,14.7266667 9.58,14.9233333 9.74,15.09 C9.9,15.2566667 10.1,15.34 10.34,15.34 L21.16,15.34 Z M21.16,20.34 C21.4,20.34 21.6,20.2566667 21.76,20.09 C21.92,19.9233333 22,19.7266667 22,19.5 C22,19.2733333 21.92,19.0766667 21.76,18.91 C21.6,18.7433333 21.4,18.66 21.16,18.66 L10.34,18.66 C10.1,18.66 9.9,18.7433333 9.74,18.91 C9.58,19.0766667 9.5,19.2733333 9.5,19.5 C9.5,19.7266667 9.58,19.9233333 9.74,20.09 C9.9,20.2566667 10.1,20.34 10.34,20.34 L21.16,20.34 Z" id="" fill="#2138AF" fill-rule="nonzero"></path>
        <path d="M7.49,17.5 C7.60333333,17.5 7.7,17.5366667 7.78,17.61 C7.86,17.6833333 7.90333333,17.78 7.91,17.9 C7.91666667,18.02 7.88,18.12 7.8,18.2 L7.8,18.2 L4.8,21.46 L4.66,21.56 C4.60666667,21.5733333 4.55333333,21.58 4.5,21.58 C4.44666667,21.58 4.39333333,21.5733333 4.34,21.56 L4.34,21.56 L4.22,21.46 L2.54,19.8 C2.46,19.72 2.42,19.62 2.42,19.5 C2.42,19.38 2.46,19.28 2.54,19.2 C2.62,19.12 2.71666667,19.08 2.83,19.08 C2.94333333,19.08 3.04,19.12 3.12,19.2 L3.12,19.2 L4.48,20.56 L7.2,17.64 C7.28,17.5466667 7.37666667,17.5 7.49,17.5 Z M7.49,12.5 C7.60333333,12.5 7.7,12.5366667 7.78,12.61 C7.86,12.6833333 7.90333333,12.78 7.91,12.9 C7.91666667,13.02 7.88,13.12 7.8,13.2 L7.8,13.2 L4.8,16.46 L4.66,16.56 C4.60666667,16.5733333 4.55333333,16.58 4.5,16.58 C4.44666667,16.58 4.39333333,16.5733333 4.34,16.56 L4.34,16.56 L4.2,16.46 L2.54,14.8 C2.46,14.72 2.42,14.62 2.42,14.5 C2.42,14.38 2.46,14.28 2.54,14.2 C2.62,14.12 2.71666667,14.08 2.83,14.08 C2.94333333,14.08 3.04,14.12 3.12,14.2 L3.12,14.2 L4.48,15.56 L7.2,12.64 C7.28,12.5466667 7.37666667,12.5 7.49,12.5 Z M7.48,7.5 C7.6,7.5 7.7,7.53666667 7.78,7.61 C7.86,7.68333333 7.90333333,7.78 7.91,7.9 C7.91666667,8.02 7.88,8.12 7.8,8.2 L7.8,8.2 L4.8,11.46 L4.66,11.56 C4.60666667,11.5733333 4.55333333,11.58 4.5,11.58 C4.44666667,11.58 4.39333333,11.5733333 4.34,11.56 L4.34,11.56 L4.22,11.46 L2.54,9.8 C2.46,9.72 2.42,9.62 2.42,9.5 C2.42,9.38 2.46,9.28 2.54,9.2 C2.62,9.12 2.71666667,9.08 2.83,9.08 C2.94333333,9.08 3.04,9.12 3.12,9.2 L3.12,9.2 L4.48,10.56 L7.2,7.64 C7.26666667,7.54666667 7.36,7.5 7.48,7.5 Z M7.48,2.5 C7.6,2.5 7.7,2.53666667 7.78,2.61 C7.86,2.68333333 7.90333333,2.78 7.91,2.9 C7.91666667,3.02 7.88,3.12 7.8,3.2 L7.8,3.2 L4.8,6.46 L4.66,6.56 C4.60666667,6.57333333 4.55333333,6.58 4.5,6.58 C4.44666667,6.58 4.39333333,6.57333333 4.34,6.56 L4.34,6.56 L4.22,6.46 L2.54,4.8 C2.46,4.72 2.42,4.62 2.42,4.5 C2.42,4.38 2.46,4.28 2.54,4.2 C2.62,4.12 2.71666667,4.08 2.83,4.08 C2.94333333,4.08 3.04,4.12 3.12,4.2 L3.12,4.2 L4.48,5.56 L7.2,2.64 C7.26666667,2.54666667 7.36,2.5 7.48,2.5 Z" id="Combined-Shape" fill="#75B843" fill-rule="nonzero"></path>
    </g>
</svg>