<?xml version="1.0" encoding="UTF-8"?>
<svg width="24px" height="24px" viewBox="0 0 24 24" version="1.1" xmlns="http://www.w3.org/2000/svg" xmlns:xlink="http://www.w3.org/1999/xlink">
    <title>Dashboard</title>
    <g id="Dashboard" stroke="none" stroke-width="1" fill="none" fill-rule="evenodd">
        <path d="M22.16,22 C22.4,22 22.6,21.92 22.76,21.76 C22.92,21.6 23,21.4033333 23,21.17 C23,20.9366667 22.92,20.74 22.76,20.58 C22.6,20.42 22.4,20.34 22.16,20.34 L4.66,20.34 L4.66,18.42 L8,15.08 L11.04,18.12 C11.12,18.2 11.2166667,18.24 11.33,18.24 C11.4433333,18.24 11.54,18.2 11.62,18.12 L16.34,13.42 L21.88,18.96 C21.96,19.04 22.0566667,19.08 22.17,19.08 C22.2833333,19.08 22.38,19.04 22.46,18.96 C22.54,18.88 22.58,18.7833333 22.58,18.67 C22.58,18.5566667 22.54,18.46 22.46,18.38 L16.62,12.54 C16.54,12.46 16.4433333,12.42 16.33,12.42 C16.2166667,12.42 16.12,12.46 16.04,12.54 L11.34,17.24 L8.3,14.2 C8.22,14.12 8.12,14.08 8,14.08 C7.88,14.08 7.78,14.12 7.7,14.2 L4.66,17.24 L4.66,11.76 L8.86,7.56 L12.78,10.68 C12.8466667,10.72 12.92,10.74 13,10.74 L13,10.76 C13.0533333,10.76 13.1066667,10.7466667 13.16,10.72 L13.26,10.66 L22.42,3.16 C22.5133333,3.08 22.5666667,2.98333333 22.58,2.87 C22.5933333,2.75666667 22.5633333,2.65666667 22.49,2.57 C22.4166667,2.48333333 22.3233333,2.43333333 22.21,2.42 C22.0966667,2.40666667 21.9933333,2.44 21.9,2.52 L13,9.8 L9.1,6.68 L8.96,6.6 L8.8,6.58 L8.66,6.62 L8.54,6.7 L4.66,10.58 L4.66,2.84 C4.66,2.6 4.58,2.4 4.42,2.24 C4.26,2.08 4.06333333,2 3.83,2 C3.59666667,2 3.4,2.08 3.24,2.24 C3.08,2.4 3,2.6 3,2.84 L3,21.16 C3,21.4 3.08,21.6 3.24,21.76 C3.4,21.92 3.6,22 3.84,22 L22.16,22 Z" id="-copy" fill="#2138AF" fill-rule="nonzero"></path>
        <path d="M4.66,20.34 L4.66,18.42 L8,15.08 L11.04,18.12 C11.12,18.2 11.2166667,18.24 11.33,18.24 C11.4433333,18.24 11.54,18.2 11.62,18.12 L16.34,13.42 L21.88,18.96 C21.96,19.04 22.0566667,19.08 22.17,19.08 C22.2833333,19.08 22.38,19.04 22.46,18.96 C22.54,18.88 22.58,18.7833333 22.58,18.67 C22.58,18.5566667 22.54,18.46 22.46,18.38 L16.62,12.54 C16.54,12.46 16.4433333,12.42 16.33,12.42 C16.2166667,12.42 16.12,12.46 16.04,12.54 L11.34,17.24 L8.3,14.2 C8.22,14.12 8.12,14.08 8,14.08 C7.88,14.08 7.78,14.12 7.7,14.2 L4.66,17.24 L4.66,11.76 L8.86,7.56 L12.78,10.68 C12.8466667,10.72 12.92,10.74 13,10.74 L13,10.76 C13.0533333,10.76 13.1066667,10.7466667 13.16,10.72 L13.26,10.66 L22.42,3.16 C22.5133333,3.08 22.5666667,2.98333333 22.58,2.87 C22.5933333,2.75666667 22.5633333,2.65666667 22.49,2.57 C22.4166667,2.48333333 22.3233333,2.43333333 22.21,2.42 C22.0966667,2.40666667 21.9933333,2.44 21.9,2.52 L13,9.8 L9.1,6.68 L8.96,6.6 L8.8,6.58 L8.66,6.62 L8.54,6.7 L4.66,10.58 L4.66,20.34 Z" id="" fill="#75B843" fill-rule="nonzero"></path>
    </g>
</svg>