<?xml version="1.0" encoding="UTF-8"?>
<svg width="24px" height="24px" viewBox="0 0 24 24" version="1.1" xmlns="http://www.w3.org/2000/svg" xmlns:xlink="http://www.w3.org/1999/xlink">
    <title>Call</title>
    <g id="Call" stroke="none" stroke-width="1" fill="none" fill-rule="evenodd">
        <path d="M16,10.9966892 L16,20 L6.94766498,20 L4,22 L4,20 L2,20 L2,10 L16,10 L16,10.9966892 Z M15,11 L3,11 L3,19 L5,19 L5,20.112 L6.64043537,19 L15,19 L15,14 L15,11 Z" id="Rectangle" fill="#2138AF" fill-rule="nonzero"></path>
        <path d="M17.3595646,12 L19,13.112 L19,12 L21,12 L21,4 L10,4 L10,9 L9,9 L9,3 L22,3 L22,13 L20,13 L20,15 L17.052335,13 L17,13 L17,12 L17.3595646,12 Z" id="Combined-Shape" fill="#75B843" fill-rule="nonzero"></path>
    </g>
</svg>