<?xml version="1.0" encoding="UTF-8"?>
<svg width="64px" height="64px" viewBox="0 0 64 64" version="1.1" xmlns="http://www.w3.org/2000/svg" xmlns:xlink="http://www.w3.org/1999/xlink">
    <title>Outcome</title>
    <g id="Outcome" stroke="none" stroke-width="1" fill="none" fill-rule="evenodd">
        <path d="M35.984,56 C36.56,56 37.04,55.808 37.424,55.424 C37.808,55.04 38,54.56 38,53.984 L38,32 L40.832,32 C41.312,32 41.744,31.84 42.128,31.52 C42.512,31.2 42.736,30.784 42.8,30.272 L44,22.304 C44.064,21.696 43.896,21.16 43.496,20.696 C43.096,20.232 42.592,20 41.984,20 L38,20 L38,19.136 C38.288,19.072 38.72,19.04 39.296,19.04 L41.984,19.04 C42.56,19.04 43.04,18.848 43.424,18.464 C43.808,18.08 44,17.616 44,17.072 L44,11.168 C44,10.784 43.888,10.424 43.664,10.088 C43.44,9.752 43.136,9.504 42.752,9.344 C42.112,9.088 41.376,8.848 40.544,8.624 C38.912,8.208 37.312,8 35.744,8 C31.872,8 29.152,9.296 27.584,11.888 C26.528,13.648 26,16.16 26,19.424 L26,20 L23.984,20 C23.44,20 22.976,20.192 22.592,20.576 C22.208,20.96 22.016,21.44 22.016,22.016 L22.016,29.984 C22.016,30.56 22.208,31.04 22.592,31.424 C22.976,31.808 23.44,32 23.984,32 L26,32 L26,53.984 C26,54.56 26.192,55.04 26.576,55.424 C26.96,55.808 27.44,56 28.016,56 L35.984,56 Z M34.016,52.016 L29.984,52.016 L29.984,28.016 L26,28.016 L26,23.984 L29.984,23.984 L29.984,19.424 C29.984,17.504 30.168,16.016 30.536,14.96 C30.904,13.904 31.496,13.144 32.312,12.68 C33.128,12.216 34.272,11.984 35.744,11.984 C37.12,11.984 38.544,12.192 40.016,12.608 L40.016,15.056 L39.296,15.056 C37.984,15.056 36.928,15.232 36.128,15.584 C34.72,16.256 34.016,17.536 34.016,19.424 L34.016,23.984 L39.68,23.984 L39.104,28.016 L34.016,28.016 L34.016,52.016 Z" id="" fill="#2138AF" fill-rule="nonzero"></path>
    </g>
</svg>