<?xml version="1.0" encoding="UTF-8"?>
<svg width="64px" height="64px" viewBox="0 0 64 64" version="1.1" xmlns="http://www.w3.org/2000/svg" xmlns:xlink="http://www.w3.org/1999/xlink">
    <title>Due Date</title>
    <g id="Due-Date" stroke="none" stroke-width="1" fill="none" fill-rule="evenodd">
        <path d="M52.016,53.984 C52.56,53.984 53.024,53.792 53.408,53.408 C53.792,53.024 53.984,52.56 53.984,52.016 L53.984,52.016 L53.984,14 C53.984,13.456 53.792,12.984 53.408,12.584 C53.024,12.184 52.56,11.984 52.016,11.984 L52.016,11.984 L46.016,11.984 L46.016,10.016 C46.016,9.44 45.816,8.96 45.416,8.576 C45.016,8.192 44.544,8 44,8 C43.456,8 42.984,8.192 42.584,8.576 C42.184,8.96 41.984,9.44 41.984,10.016 L41.984,10.016 L41.984,11.984 L22.016,11.984 L22.016,10.016 C22.016,9.44 21.816,8.96 21.416,8.576 C21.016,8.192 20.544,8 20,8 C19.456,8 18.984,8.192 18.584,8.576 C18.184,8.96 17.984,9.44 17.984,10.016 L17.984,10.016 L17.984,11.984 L11.984,11.984 C11.44,11.984 10.976,12.184 10.592,12.584 C10.208,12.984 10.016,13.456 10.016,14 L10.016,14 L10.016,52.016 C10.016,52.56 10.208,53.024 10.592,53.408 C10.976,53.792 11.44,53.984 11.984,53.984 L11.984,53.984 L52.016,53.984 Z M50,23.984 L14,23.984 L14,16.016 L17.984,16.016 L17.984,17.984 C17.984,18.56 18.184,19.04 18.584,19.424 C18.984,19.808 19.456,20 20,20 C20.544,20 21.016,19.808 21.416,19.424 C21.816,19.04 22.016,18.56 22.016,17.984 L22.016,17.984 L22.016,16.016 L41.984,16.016 L41.984,17.984 C41.984,18.56 42.184,19.04 42.584,19.424 C42.984,19.808 43.456,20 44,20 C44.544,20 45.016,19.808 45.416,19.424 C45.816,19.04 46.016,18.56 46.016,17.984 L46.016,17.984 L46.016,16.016 L50,16.016 L50,23.984 Z M50,50 L14,50 L14,26 L50,26 L50,50 Z" id="" fill="#2138AF" fill-rule="nonzero"></path>
        <path d="M21.008,41.984 L21.134,41.9926667 C21.3406667,42.0215556 21.5306667,42.1226667 21.704,42.296 C21.912,42.504 22.016,42.736 22.016,42.992 L22.016,42.992 L22.016,45.008 L22.0073333,45.134 C21.9784444,45.3406667 21.8773333,45.5306667 21.704,45.704 C21.496,45.912 21.264,46.016 21.008,46.016 L21.008,46.016 L18.992,46.016 L18.866,46.0073333 C18.6593333,45.9784444 18.4693333,45.8773333 18.296,45.704 C18.088,45.496 17.984,45.264 17.984,45.008 L17.984,45.008 L17.984,42.992 L17.9926667,42.866 C18.0215556,42.6593333 18.1226667,42.4693333 18.296,42.296 C18.504,42.088 18.736,41.984 18.992,41.984 L18.992,41.984 L21.008,41.984 Z M27.008,41.984 L27.134,41.9926667 C27.3406667,42.0215556 27.5306667,42.1226667 27.704,42.296 C27.912,42.504 28.016,42.736 28.016,42.992 L28.016,42.992 L28.016,45.008 L28.0073333,45.134 C27.9784444,45.3406667 27.8773333,45.5306667 27.704,45.704 C27.496,45.912 27.264,46.016 27.008,46.016 L27.008,46.016 L24.992,46.016 L24.866,46.0073333 C24.6593333,45.9784444 24.4693333,45.8773333 24.296,45.704 C24.088,45.496 23.984,45.264 23.984,45.008 L23.984,45.008 L23.984,42.992 L23.9926667,42.866 C24.0215556,42.6593333 24.1226667,42.4693333 24.296,42.296 C24.504,42.088 24.736,41.984 24.992,41.984 L24.992,41.984 L27.008,41.984 Z M33.008,41.984 L33.134,41.9926667 C33.3406667,42.0215556 33.5306667,42.1226667 33.704,42.296 C33.912,42.504 34.016,42.736 34.016,42.992 L34.016,42.992 L34.016,45.008 L34.0073333,45.134 C33.9784444,45.3406667 33.8773333,45.5306667 33.704,45.704 C33.496,45.912 33.264,46.016 33.008,46.016 L33.008,46.016 L30.992,46.016 L30.866,46.0073333 C30.6593333,45.9784444 30.4693333,45.8773333 30.296,45.704 C30.088,45.496 29.984,45.264 29.984,45.008 L29.984,45.008 L29.984,42.992 L29.9926667,42.866 C30.0215556,42.6593333 30.1226667,42.4693333 30.296,42.296 C30.504,42.088 30.736,41.984 30.992,41.984 L30.992,41.984 L33.008,41.984 Z M21.008,35.984 L21.134,35.9926667 C21.3406667,36.0215556 21.5306667,36.1226667 21.704,36.296 C21.912,36.504 22.016,36.736 22.016,36.992 L22.016,36.992 L22.016,39.008 L22.0073333,39.134 C21.9784444,39.3406667 21.8773333,39.5306667 21.704,39.704 C21.496,39.912 21.264,40.016 21.008,40.016 L21.008,40.016 L18.992,40.016 L18.866,40.0073333 C18.6593333,39.9784444 18.4693333,39.8773333 18.296,39.704 C18.088,39.496 17.984,39.264 17.984,39.008 L17.984,39.008 L17.984,36.992 L17.9926667,36.866 C18.0215556,36.6593333 18.1226667,36.4693333 18.296,36.296 C18.504,36.088 18.736,35.984 18.992,35.984 L18.992,35.984 L21.008,35.984 Z M27.008,35.984 L27.134,35.9926667 C27.3406667,36.0215556 27.5306667,36.1226667 27.704,36.296 C27.912,36.504 28.016,36.736 28.016,36.992 L28.016,36.992 L28.016,39.008 L28.0073333,39.134 C27.9784444,39.3406667 27.8773333,39.5306667 27.704,39.704 C27.496,39.912 27.264,40.016 27.008,40.016 L27.008,40.016 L24.992,40.016 L24.866,40.0073333 C24.6593333,39.9784444 24.4693333,39.8773333 24.296,39.704 C24.088,39.496 23.984,39.264 23.984,39.008 L23.984,39.008 L23.984,36.992 L23.9926667,36.866 C24.0215556,36.6593333 24.1226667,36.4693333 24.296,36.296 C24.504,36.088 24.736,35.984 24.992,35.984 L24.992,35.984 L27.008,35.984 Z M33.008,35.984 L33.134,35.9926667 C33.3406667,36.0215556 33.5306667,36.1226667 33.704,36.296 C33.912,36.504 34.016,36.736 34.016,36.992 L34.016,36.992 L34.016,39.008 L34.0073333,39.134 C33.9784444,39.3406667 33.8773333,39.5306667 33.704,39.704 C33.496,39.912 33.264,40.016 33.008,40.016 L33.008,40.016 L30.992,40.016 L30.866,40.0073333 C30.6593333,39.9784444 30.4693333,39.8773333 30.296,39.704 C30.088,39.496 29.984,39.264 29.984,39.008 L29.984,39.008 L29.984,36.992 L29.9926667,36.866 C30.0215556,36.6593333 30.1226667,36.4693333 30.296,36.296 C30.504,36.088 30.736,35.984 30.992,35.984 L30.992,35.984 L33.008,35.984 Z M39.008,35.984 L39.134,35.9926667 C39.3406667,36.0215556 39.5306667,36.1226667 39.704,36.296 C39.912,36.504 40.016,36.736 40.016,36.992 L40.016,36.992 L40.016,39.008 L40.0073333,39.134 C39.9784444,39.3406667 39.8773333,39.5306667 39.704,39.704 C39.496,39.912 39.264,40.016 39.008,40.016 L39.008,40.016 L36.992,40.016 L36.866,40.0073333 C36.6593333,39.9784444 36.4693333,39.8773333 36.296,39.704 C36.088,39.496 35.984,39.264 35.984,39.008 L35.984,39.008 L35.984,36.992 L35.9926667,36.866 C36.0215556,36.6593333 36.1226667,36.4693333 36.296,36.296 C36.504,36.088 36.736,35.984 36.992,35.984 L36.992,35.984 L39.008,35.984 Z M45.008,35.984 L45.134,35.9926667 C45.3406667,36.0215556 45.5306667,36.1226667 45.704,36.296 C45.912,36.504 46.016,36.736 46.016,36.992 L46.016,36.992 L46.016,39.008 L46.0073333,39.134 C45.9784444,39.3406667 45.8773333,39.5306667 45.704,39.704 C45.496,39.912 45.264,40.016 45.008,40.016 L45.008,40.016 L42.992,40.016 L42.866,40.0073333 C42.6593333,39.9784444 42.4693333,39.8773333 42.296,39.704 C42.088,39.496 41.984,39.264 41.984,39.008 L41.984,39.008 L41.984,36.992 L41.9926667,36.866 C42.0215556,36.6593333 42.1226667,36.4693333 42.296,36.296 C42.504,36.088 42.736,35.984 42.992,35.984 L42.992,35.984 L45.008,35.984 Z M27.008,29.984 L27.134,29.9926667 C27.3406667,30.0215556 27.5306667,30.1226667 27.704,30.296 C27.912,30.504 28.016,30.736 28.016,30.992 L28.016,30.992 L28.016,33.008 L28.0073333,33.134 C27.9784444,33.3406667 27.8773333,33.5306667 27.704,33.704 C27.496,33.912 27.264,34.016 27.008,34.016 L27.008,34.016 L24.992,34.016 L24.866,34.0073333 C24.6593333,33.9784444 24.4693333,33.8773333 24.296,33.704 C24.088,33.496 23.984,33.264 23.984,33.008 L23.984,33.008 L23.984,30.992 L23.9926667,30.866 C24.0215556,30.6593333 24.1226667,30.4693333 24.296,30.296 C24.504,30.088 24.736,29.984 24.992,29.984 L24.992,29.984 L27.008,29.984 Z M33.008,29.984 L33.134,29.9926667 C33.3406667,30.0215556 33.5306667,30.1226667 33.704,30.296 C33.912,30.504 34.016,30.736 34.016,30.992 L34.016,30.992 L34.016,33.008 L34.0073333,33.134 C33.9784444,33.3406667 33.8773333,33.5306667 33.704,33.704 C33.496,33.912 33.264,34.016 33.008,34.016 L33.008,34.016 L30.992,34.016 L30.866,34.0073333 C30.6593333,33.9784444 30.4693333,33.8773333 30.296,33.704 C30.088,33.496 29.984,33.264 29.984,33.008 L29.984,33.008 L29.984,30.992 L29.9926667,30.866 C30.0215556,30.6593333 30.1226667,30.4693333 30.296,30.296 C30.504,30.088 30.736,29.984 30.992,29.984 L30.992,29.984 L33.008,29.984 Z M39.008,29.984 L39.134,29.9926667 C39.3406667,30.0215556 39.5306667,30.1226667 39.704,30.296 C39.912,30.504 40.016,30.736 40.016,30.992 L40.016,30.992 L40.016,33.008 L40.0073333,33.134 C39.9784444,33.3406667 39.8773333,33.5306667 39.704,33.704 C39.496,33.912 39.264,34.016 39.008,34.016 L39.008,34.016 L36.992,34.016 L36.866,34.0073333 C36.6593333,33.9784444 36.4693333,33.8773333 36.296,33.704 C36.088,33.496 35.984,33.264 35.984,33.008 L35.984,33.008 L35.984,30.992 L35.9926667,30.866 C36.0215556,30.6593333 36.1226667,30.4693333 36.296,30.296 C36.504,30.088 36.736,29.984 36.992,29.984 L36.992,29.984 L39.008,29.984 Z M45.008,29.984 L45.134,29.9926667 C45.3406667,30.0215556 45.5306667,30.1226667 45.704,30.296 C45.912,30.504 46.016,30.736 46.016,30.992 L46.016,30.992 L46.016,33.008 L46.0073333,33.134 C45.9784444,33.3406667 45.8773333,33.5306667 45.704,33.704 C45.496,33.912 45.264,34.016 45.008,34.016 L45.008,34.016 L42.992,34.016 L42.866,34.0073333 C42.6593333,33.9784444 42.4693333,33.8773333 42.296,33.704 C42.088,33.496 41.984,33.264 41.984,33.008 L41.984,33.008 L41.984,30.992 L41.9926667,30.866 C42.0215556,30.6593333 42.1226667,30.4693333 42.296,30.296 C42.504,30.088 42.736,29.984 42.992,29.984 L42.992,29.984 L45.008,29.984 Z" id="Combined-Shape" fill="#75B843" fill-rule="nonzero"></path>
    </g>
</svg>